<svg height="511pt" viewBox="0 -15 511.99746 511" width="511pt" xmlns="http://www.w3.org/2000/svg"><path d="m475.5625 171.128906c-15.75-54.304687-30.394531-88.4375-31.007812-89.863281-.382813-.882813-.925782-1.6875-1.605469-2.367187-20.914063-20.914063-48.410157-36.339844-67.871094-45.628907-.097656-.050781-.191406-.105469-.292969-.152343l-58.484375-26.976563c-.675781-.3125-1.390625-.507813-2.113281-.613281l.003906-.011719c-1.4375-.203125-35.449218-5.015625-58.191406-5.015625s-56.753906 4.8125-58.191406 5.015625l.003906.011719c-.722656.105468-1.4375.300781-2.113281.613281l-58.484375 26.976563c-.015625.007812-.03125.015624-.046875.023437-.015625.003906-.027344.011719-.042969.015625-19.480469 9.289062-47.109375 24.765625-68.085938 45.742188-.675781.679687-1.222656 1.484374-1.601562 2.363281-.292969.679687-29.488281 68.882812-49.398438 163.320312-.867187 4.109375 1.761719 8.140625 5.871094 9.007813.527344.113281 1.054688.164062 1.574219.164062 3.519531 0 6.679687-2.457031 7.433594-6.035156 18.0625-85.660156 43.8125-149.238281 47.921875-159.097656 16.59375-16.253906 37.675781-29 54.75-37.738282l25.914062 90.890626c.929688 3.265624 3.914063 5.519531 7.3125 5.519531h19.175782l-10.535157 31.609375c-.707031 2.113281-.445312 4.429687.703125 6.335937l70.234375 116.265625v164.558594c-70.707031-1.363281-101.644531-21.546875-109.488281-27.726562v-62.320313l23.457031 12.609375c3.609375 1.9375 7.519531 2.90625 11.429688 2.90625 4.265625 0 8.523437-1.152344 12.359375-3.445312 7.351562-4.394532 11.738281-12.132813 11.738281-20.695313v-5.042969c0-2.800781-1.535156-5.375-4.003906-6.699218l-54.980469-29.558594v-154.578125c0-.027344.003906-.050781.003906-.078125 0-25.324219-9.964844-48.550782-10.386718-49.527344-1.675782-3.851562-6.15625-5.617188-10.007813-3.945312-3.851563 1.675781-5.617187 6.152343-3.941406 10.003906.089843.207031 8.851562 20.636718 9.117187 42.460937l-49.699218 179.628907c-16.277344-.152344-40.472657-1.53125-55.230469-13.703126 2.070312-19.363281 4.863281-39.097656 8.414062-59.0625.734375-4.132812-2.019531-8.082031-6.15625-8.816406s-8.082031 2.019532-8.816406 6.152344c-6.53125 36.722656-10.636719 72.75-12.1953125 107.089844-.0859375 1.894531.5390625 3.753906 1.7539065 5.210937 1.015625 1.21875 25.367187 29.722657 68.753906 18.472657 2.628906-.683594 4.695313-2.714844 5.421875-5.332032l47.761719-172.636718v214.355468c0 1.945313.746093 3.816406 2.085937 5.230469 1.328125 1.402344 33.632813 34.332031 130.214844 34.332031 31.136719 0 58.789062-3.417968 82.179688-10.152344 4.035156-1.164062 6.363281-5.375 5.203124-9.410156-1.164062-4.035156-5.375-6.367187-9.414062-5.203125-20.121094 5.792969-43.769531 8.96875-70.363281 9.476563v-164.554688l70.234375-116.265625c1.148437-1.90625 1.410156-4.222656.703125-6.335937l-10.535157-31.609375h19.175782c3.398437 0 6.382812-2.253907 7.3125-5.519531l25.910156-90.878907c17.066406 8.726563 38.140625 21.464844 54.742188 37.722657 5.414062 13.023437 48.300781 119.308593 62.097656 247.722656-14.757813 12.183594-38.96875 13.5625-55.25 13.714844l-49.695313-179.617188c.261719-21.71875 9.027344-42.269531 9.117188-42.472656 1.671875-3.851563-.09375-8.328125-3.945313-10.003906-3.851562-1.671876-8.328125.09375-10.003906 3.945312-.425781.976562-10.390625 24.203125-10.390625 49.527344v.011718 154.644532l-54.980469 29.558594c-2.464844 1.324218-4.003906 3.898437-4.003906 6.695312v5.042969c0 8.566406 4.390625 16.304687 11.742188 20.695312 3.835937 2.296875 8.09375 3.445313 12.359374 3.445313 3.90625 0 7.820313-.964844 11.425782-2.902344l23.457031-12.609375v62.332031c-2.195313 1.75-6.164063 4.578125-12.242187 7.746094-3.726563 1.941406-5.171876 6.535156-3.230469 10.257812 1.359375 2.601563 4.007812 4.089844 6.75 4.089844 1.183593 0 2.386719-.277344 3.507812-.863281 12.363281-6.445313 17.765625-11.957031 18.339844-12.5625 1.339844-1.414063 2.085937-3.285156 2.085937-5.230469v-214.355468l47.761719 172.636718c.726563 2.617188 2.789063 4.648438 5.421875 5.332032 43.390625 11.25 67.75-17.253907 68.761719-18.472657 1.214844-1.457031 1.839844-3.316406 1.753906-5.210937-3.785156-83.289063-21.898437-160.488282-36.425781-210.585938zm-292.878906 195.761719v.496094c0 4.558593-3.03125 6.863281-4.332032 7.640625-1.304687.78125-4.773437 2.359375-8.785156.203125l-30.660156-16.484375v-15.390625zm-167.328125 12.261719c.421875-8.417969 1.003906-16.945313 1.734375-25.558594 16.507812 9.460938 37.167968 11.269531 52.710937 11.609375l-7.3125 26.429687c-25.640625 4.972657-41.816406-7.460937-47.132812-12.480468zm262.316406-227.273438-3.617187-53.457031 10.878906-24.949219 6.984375 6.984375zm-21.671875 108.636719-10.300781-51.640625 7.046875-104.1875h6.488281l7.054687 104.246094zm-35.917969-180.058594 6.972657-6.972656 10.871093 24.933594-3.609375 53.386719zm41.28125 9.019531h-10.742187l-12.011719-27.546874 17.390625-17.390626 17.378906 17.382813zm-44.855469-26.949218-7.527343-37.726563 33.195312 12.054688zm78.984376 0-25.667969-25.671875 33.195312-12.054688zm-39.492188-46.820313c7.214844 0 15.804688.535157 24.066406 1.25l-24.066406 8.738281-24.066406-8.738281c8.261718-.714843 16.851562-1.25 24.066406-1.25zm-63.003906 164.675781 12.761718-38.289062c.773438-2.320312.382813-4.867188-1.046874-6.851562-1.429688-1.984376-3.722657-3.160157-6.167969-3.160157h-23.988281l-25.058594-87.882812 43.816406-20.210938 46.730469 234.277344zm144.449218-48.296874h-23.988281c-2.445312 0-4.742187 1.175781-6.167969 3.15625-1.429687 1.984374-1.820312 4.53125-1.046874 6.851562l12.761718 38.289062-47.046875 77.886719 46.730469-234.28125 43.816406 20.214844zm4.976563 243.144531c-4.015625 2.15625-7.480469.578125-8.785156-.203125-1.300781-.777344-4.332031-3.082032-4.332031-7.640625v-.496094l43.777343-23.535156v15.390625zm107.078125 16.398437-7.3125-26.425781c15.546875-.339844 36.207031-2.148437 52.71875-11.609375.71875 8.441406 1.308594 16.964844 1.738281 25.546875-5.3125 4.980469-21.570312 17.433594-47.144531 12.488281zm0 0"/><path d="m492.332031 369.398438c-.699219-3.375-3.625-5.9375-7.082031-6.105469-3.183594-.15625-6.171875 1.75-7.394531 4.6875-2.558594 6.136719 3.8125 12.464843 9.929687 9.929687 3.328125-1.382812 5.210938-4.984375 4.546875-8.511718zm0 0"/><path d="m34.140625 367.980469c-1.265625-2.996094-4.328125-4.910157-7.582031-4.675781-3.179688.230468-5.90625 2.488281-6.761719 5.550781-1.847656 6.578125 5.636719 12.074219 11.386719 8.449219 3.066406-1.9375 4.375-5.96875 2.957031-9.324219zm0 0"/><path d="m293.089844 312.015625c-4.742188-4.742187-13.15625-1.140625-12.984375 5.566406.085937 3.316407 2.390625 6.238281 5.578125 7.132813 3.121094.875 6.550781-.398438 8.347656-3.101563 1.984375-2.980469 1.578125-7.058593-.941406-9.597656zm0 0"/><path d="m295.167969 367.542969c-1.386719-6.65625-10.539063-8.316407-14.011719-2.355469-3.519531 6.035156 2.628906 13.386719 9.171875 10.980469 3.441406-1.269531 5.59375-5.003907 4.839844-8.625zm0 0"/><path d="m286.226562 416.929688c-2.960937.550781-5.332031 2.960937-5.957031 5.886718-.695312 3.253906.921875 6.703125 3.859375 8.261719 2.78125 1.476563 6.25 1.082031 8.613282-1 2.539062-2.242187 3.273437-6 1.792968-9.039063-1.488281-3.050781-4.972656-4.792968-8.308594-4.109374zm0 0"/></svg>