<?xml version="1.0"?>
<svg xmlns="http://www.w3.org/2000/svg" height="512px" viewBox="0 0 512 512" width="512px" class=""><g><link xmlns="" type="text/css" id="dark-mode" rel="stylesheet" href="" class="active-path" style="fill:#002DFF" data-old_color="#000000"/><style xmlns="" type="text/css" id="dark-mode-custom-style" class="active-path" style="fill:#002DFF" data-old_color="#000000"/><path d="m437 322h-21.363281c-14.996094 0-29.78125-3.398438-43.15625-9.695312l7.113281-8.265626c5.402344-6.277343 4.695312-15.75-1.582031-21.152343-6.277344-5.402344-15.75-4.695313-21.15625 1.582031l-9.460938 10.992188c-.96875-.894532-1.925781-1.800782-2.859375-2.734376-6.765625-6.765624-13.097656-13.871093-19.007812-21.277343l11.898437-8.390625c6.769531-4.773438 8.386719-14.132813 3.613281-20.902344-4.773437-6.769531-14.132812-8.390625-20.902343-3.613281l-11.90625 8.394531c-5.6875-9.179688-10.800781-18.738281-15.3125-28.652344l13.570312-5.242187c7.730469-2.984375 11.574219-11.671875 8.585938-19.398438-2.984375-7.726562-11.667969-11.574219-19.394531-8.585937l-13.578126 5.242187c-3.316406-10.347656-5.957031-20.855469-7.914062-31.503906l14.460938-1.78125c8.222656-1.015625 14.0625-8.503906 13.050781-16.726563-1.015625-8.222656-8.503907-14.0625-16.726563-13.050781l-14.441406 1.78125c-.339844-5.390625-.527344-10.804687-.527344-16.242187v-37.777344c0-8.285156-6.71875-15-15-15h-193.265625c4.65625-8.953125 8.261719-18.109375 8.261719-25 0-19.300781-15.699219-35-35-35s-35 15.699219-35 35c0 12.328125 11.527344 31.894531 20 44.605469v155.035156c0 12.3125-2.910156 24.640625-8.414062 35.648437-7.582032 15.15625-11.585938 32.125-11.585938 49.066407v177.644531c0 8.285156 6.714844 15 15 15h150c8.285156 0 15-6.714844 15-15v-.113281l50.878906 14.535156c1.339844.382813 2.726563.578125 4.121094.578125h262c8.285156 0 15-6.714844 15-15v-100c0-41.355469-33.644531-75-75-75zm-196.300781-189.296875-15.277344 1.882813c-8.222656 1.015624-14.0625 8.503906-13.050781 16.726562.941406 7.597656 7.40625 13.164062 14.871094 13.164062.609374 0 1.230468-.039062 1.855468-.113281l15.257813-1.882812c2.316406 13.078125 5.558593 25.976562 9.710937 38.652343l-14.359375 5.546876c-7.726562 2.984374-11.570312 11.667968-8.585937 19.398437 2.300781 5.949219 7.976562 9.597656 13.996094 9.597656 1.796874 0 3.625-.324219 5.402343-1.011719l14.363281-5.546874c5.460938 12.199218 11.734376 23.925781 18.785157 35.140624l-12.566407 8.863282c-6.773437 4.773437-8.390624 14.132812-3.617187 20.902344 2.921875 4.144531 7.5625 6.355468 12.273437 6.355468 2.984376 0 6.003907-.890625 8.628907-2.742187l12.574219-8.863281c6.921874 8.78125 14.375 17.179687 22.359374 25.167968 1.460938 1.460938 2.960938 2.882813 4.488282 4.269532l-10.09375 11.730468c-5.40625 6.277344-4.699219 15.75 1.582031 21.152344 2.832031 2.4375 6.3125 3.632812 9.777344 3.632812 4.214843 0 8.40625-1.769531 11.375-5.214843l11.910156-13.832031c19.210937 10.558593 41.070313 16.320312 63.277344 16.320312h21.363281c24.8125 0 45 20.1875 45 45v25h-244.898438l-67.980468-19.421875c-1.339844-.382813-2.726563-.578125-4.121094-.578125h-135v-82.644531c0-12.308594 2.910156-24.636719 8.414062-35.648438 7.582032-15.152343 11.585938-32.121093 11.585938-49.066406v-144.640625h190v22.777344c0 6.675781.242188 13.316406.699219 19.925781zm-205.699219-102.703125c2.671875 0 4.859375 2.105469 4.992188 4.742188-.355469 2.140624-2.234376 6.378906-4.980469 11.539062-2.753907-5.167969-4.648438-9.429688-5.003907-11.539062.132813-2.636719 2.320313-4.742188 4.992188-4.742188zm447 452h-30v-5c0-8.285156-6.714844-15-15-15s-15 6.714844-15 15v5h-30v-5c0-8.285156-6.714844-15-15-15s-15 6.714844-15 15v5h-30v-5c0-8.285156-6.714844-15-15-15s-15 6.714844-15 15v5h-30v-5c0-8.285156-6.714844-15-15-15s-15 6.714844-15 15v5h-4.898438l-67.980468-19.421875c-4.527344-1.292969-9.394532-.386719-13.152344 2.445313-3.757812 2.835937-5.96875 7.269531-5.96875 11.976562v5h-15v-5c0-8.285156-6.714844-15-15-15s-15 6.714844-15 15v5h-30v-5c0-8.285156-6.714844-15-15-15s-15 6.714844-15 15v5h-15v-50h132.898438l67.980468 19.421875c1.339844.382813 2.726563.578125 4.121094.578125h247zm0 0" data-original="#000000" class="active-path" data-old_color="#000000" fill="#002DFF"/><path d="m200.265625 275.007812-33.546875-5.125-15.140625-32.253906c-2.472656-5.265625-7.761719-8.628906-13.578125-8.628906s-11.105469 3.363281-13.578125 8.625l-15.140625 32.257812-33.546875 5.125c-5.558594.847657-10.175781 4.734376-11.957031 10.066407-1.785156 5.328125-.4375 11.210937 3.488281 15.234375l24.710937 25.332031-5.863281 35.945313c-.925781 5.667968 1.46875 11.367187 6.164063 14.675781 4.699218 3.308593 10.871094 3.644531 15.898437.867187l29.824219-16.488281 29.824219 16.488281c2.265625 1.25 4.765625 1.871094 7.253906 1.871094 3.039063 0 6.0625-.921875 8.644531-2.738281 4.695313-3.308594 7.089844-9.007813 6.164063-14.675781l-5.863281-35.945313 24.710937-25.328125c3.925781-4.027344 5.273437-9.90625 3.488281-15.238281s-6.398437-9.21875-11.957031-10.066407zm-43 35.101563c-3.328125 3.40625-4.835937 8.191406-4.070313 12.886719l2.109376 12.933594-10.046876-5.558594c-2.257812-1.246094-4.757812-1.871094-7.257812-1.871094s-5 .625-7.257812 1.871094l-10.046876 5.558594 2.109376-12.933594c.765624-4.695313-.742188-9.480469-4.070313-12.886719l-9.613281-9.855469 12.601562-1.925781c4.945313-.753906 9.1875-3.925781 11.3125-8.453125l4.964844-10.570312 4.960938 10.570312c2.125 4.527344 6.367187 7.699219 11.3125 8.453125l12.605468 1.925781zm0 0" data-original="#000000" class="active-path" data-old_color="#000000" fill="#002DFF"/><path d="m105 130c0 8.285156-6.714844 15-15 15s-15-6.714844-15-15 6.714844-15 15-15 15 6.714844 15 15zm0 0" data-original="#000000" class="active-path" data-old_color="#000000" fill="#002DFF"/><path d="m165 130c0 8.285156-6.714844 15-15 15s-15-6.714844-15-15 6.714844-15 15-15 15 6.714844 15 15zm0 0" data-original="#000000" class="active-path" data-old_color="#000000" fill="#002DFF"/></g> </svg>
