<?xml version="1.0" encoding="iso-8859-1"?>
<!-- Generator: Adobe Illustrator 18.0.0, SVG Export Plug-In . SVG Version: 6.00 Build 0)  -->
<!DOCTYPE svg PUBLIC "-//W3C//DTD SVG 1.1//EN" "http://www.w3.org/Graphics/SVG/1.1/DTD/svg11.dtd">
<svg version="1.1" id="Capa_1" xmlns="http://www.w3.org/2000/svg" xmlns:xlink="http://www.w3.org/1999/xlink" x="0px" y="0px"
	 viewBox="0 0 469.701 469.701" style="enable-background:new 0 0 469.701 469.701;" xml:space="preserve">
<g>
	<path d="M414.139,391.423l-23.035-303.88c-1.549-20.448-13.268-38.435-31.347-48.113L287.21,0.592
		c-0.741-0.396-1.552-0.58-2.359-0.58L284.167,0h-98.687l-0.629,0.012c-0.808,0-1.619,0.183-2.36,0.58L109.945,39.43
		c-18.079,9.679-29.798,27.665-31.348,48.113l-23.035,303.88c-0.521,6.879,0.756,13.813,3.693,20.054l3.542,7.527l-0.94,19.758
		c-0.116,2.433,1.537,4.594,3.913,5.12l28.842,6.386c1.315,0.289,2.695,0.039,3.823-0.701c1.128-0.739,1.909-1.902,2.167-3.227
		l3.877-19.939c5.991-6.485,9.693-14.819,10.47-23.641l12.188-138.5c0.109,43.306-0.524,88.606-3.237,108.049
		c-3.144,22.535-3.528,42.297-3.297,54.908c0.131,7.154,0.47,12.828,0.732,16.327c0.519,6.948,0.55,7.364,1.746,8.738
		c0.624,0.717,1.44,1.241,2.352,1.512c35.792,10.605,72.606,15.907,109.42,15.907s73.629-5.302,109.421-15.907
		c1.911-0.566,3.303-2.214,3.543-4.192c0.166-1.374,4.009-34.144-2.012-77.293c-2.713-19.441-3.346-64.741-3.236-108.047
		l12.188,138.498c0.776,8.82,4.479,17.155,10.47,23.641l3.877,19.939c0.258,1.324,1.039,2.487,2.166,3.227
		c1.127,0.74,2.504,0.992,3.823,0.701l28.842-6.386c2.377-0.526,4.029-2.688,3.913-5.12l-0.94-19.758l3.542-7.527
		C413.383,405.235,414.66,398.301,414.139,391.423z M234.85,183.135C220.843,158.495,177.619,75.633,188.992,10h91.717
		C292.082,75.633,248.858,158.495,234.85,183.135z M198.827,131.219c14.625,36.874,31.091,63.327,31.785,64.435
		c0.914,1.46,2.515,2.347,4.238,2.347c1.722,0,3.324-0.887,4.238-2.347c0.693-1.107,17.16-27.561,31.785-64.435
		c17.869-45.054,24.776-84.346,20.592-117.007l6.136,3.285v14.058c0.7,78.307-52.029,163.172-54.278,166.752l-8.472,13.531
		l-8.476-13.537C224.13,194.727,171.4,109.861,172.1,31.51V17.497l6.136-3.285C174.052,46.873,180.959,86.165,198.827,131.219z
		 M72.045,435.029l0.526-11.057l21.41,4.014l-2.218,11.408L72.045,435.029z M104.986,401.883
		c-0.542,6.155-2.984,11.993-6.939,16.692l-26.761-5.018l-2.983-6.339c-2.203-4.681-3.16-9.881-2.769-15.04l23.035-303.88
		c0.492-6.496,2.225-12.688,5.007-18.316c17.688,31.674,30.661,88.32,32.227,95.344L104.986,401.883z M133.802,373.691
		c5.987-42.911,2.21-202.059,2.046-208.813c-0.008-0.319-0.288-1.746-0.527-2.804c-1.178-5.204-4.81-20.712-10.185-38.7
		c-8.294-27.759-16.859-48.848-25.488-62.792c4.075-4.971,9.134-9.188,15.016-12.336L162.1,22.851v8.614
		c-0.726,81.202,53.498,168.479,55.802,172.148l11.948,19.083v236.962c-33.085-0.443-66.13-5.273-98.353-14.511
		C130.704,435.9,129.026,407.923,133.802,373.691z M338.202,445.146c-32.223,9.237-65.268,14.068-98.353,14.511V222.697
		l11.945-19.078c2.309-3.676,56.532-90.952,55.806-172.109v-8.659l47.436,25.396c5.882,3.149,10.941,7.366,15.017,12.337
		c-8.63,13.944-17.195,35.033-25.488,62.792c-5.179,17.334-8.741,32.365-10.047,38.092c-0.326,1.428-0.658,3.093-0.665,3.412
		c-0.164,6.754-3.941,165.901,2.046,208.813C340.666,407.858,338.992,435.888,338.202,445.146z M377.938,439.395l-2.218-11.408
		l21.41-4.014l0.527,11.057L377.938,439.395z M401.398,407.219l-2.983,6.338l-26.761,5.018c-3.956-4.7-6.397-10.538-6.939-16.692
		l-20.816-236.555c1.563-7.016,14.529-63.66,32.227-95.347c2.782,5.628,4.515,11.821,5.007,18.317l23.035,303.88
		C404.559,397.337,403.601,402.538,401.398,407.219z"/>
	<path d="M209.682,260.15c8.271,0,15-6.729,15-15s-6.729-15-15-15s-15,6.729-15,15S201.411,260.15,209.682,260.15z M209.682,240.15
		c2.757,0,5,2.243,5,5s-2.243,5-5,5s-5-2.243-5-5S206.926,240.15,209.682,240.15z"/>
	<path d="M209.682,299.207c-8.271,0-15,6.729-15,15s6.729,15,15,15s15-6.729,15-15S217.953,299.207,209.682,299.207z
		 M209.682,319.207c-2.757,0-5-2.243-5-5s2.243-5,5-5s5,2.243,5,5S212.439,319.207,209.682,319.207z"/>
	<path d="M209.682,368.263c-8.271,0-15,6.729-15,15s6.729,15,15,15s15-6.729,15-15S217.953,368.263,209.682,368.263z
		 M209.682,388.263c-2.757,0-5-2.243-5-5s2.243-5,5-5s5,2.243,5,5S212.439,388.263,209.682,388.263z"/>
	<path d="M213.852,48.007h41.998c2.762,0,5-2.238,5-5v-15c0-2.762-2.238-5-5-5h-41.998c-2.761,0-5,2.238-5,5v15
		C208.852,45.769,211.091,48.007,213.852,48.007z M218.852,33.007h31.998v5h-31.998V33.007z"/>
</g>
<g>
</g>
<g>
</g>
<g>
</g>
<g>
</g>
<g>
</g>
<g>
</g>
<g>
</g>
<g>
</g>
<g>
</g>
<g>
</g>
<g>
</g>
<g>
</g>
<g>
</g>
<g>
</g>
<g>
</g>
</svg>
