<?xml version="1.0"?>
<svg xmlns="http://www.w3.org/2000/svg" height="512px" viewBox="0 -68 511.99953 511" width="512px" class=""><g><link xmlns="" type="text/css" id="dark-mode" rel="stylesheet" href="" class="active-path" style="fill:#9E0000" data-old_color="#9C0000"/><style xmlns="" type="text/css" id="dark-mode-custom-style" class="active-path" style="fill:#9E0000" data-old_color="#9C0000"/><path d="m510.375 197.207031c-3.949219-56.519531-14.742188-108.972656-27.636719-134.738281v-54.367188c0-4.199218-3.40625-7.601562-7.605469-7.601562h-299.011718c-4.199219 0-7.605469 3.402344-7.605469 7.601562 0 4.199219 3.40625 7.601563 7.605469 7.601563h31.417968v40.984375h-163.074218v-40.984375h101.246094c4.199218 0 7.601562-3.402344 7.601562-7.601563 0-4.199218-3.402344-7.601562-7.601562-7.601562h-108.847657c-4.199219 0-7.601562 3.402344-7.601562 7.601562v54.367188c-12.894531 25.765625-23.6875 78.21875-27.636719 134.738281-6.277344 89.851563 7.066406 137.542969 15.578125 157.972657.78125 1.871093 2.273437 3.351562 4.148437 4.117187.933594.378906 23.269532 9.378906 58.441407 13.933594 32.386719 4.191406 82.257812 5.199219 135.917969-13.808594 1.90625-.675781 3.46875-2.085937 4.335937-3.917969l35.953125-76.0625 35.957031 76.0625c.863281 1.832032 2.425781 3.242188 4.335938 3.917969 35.171875 12.460937 68.714843 16.320313 96.773437 16.316406 14.746094 0 27.984375-1.066406 39.140625-2.507812 35.171875-4.554688 57.507813-13.554688 58.445313-13.933594 1.875-.765625 3.367187-2.246094 4.144531-4.117187 8.511719-20.429688 21.855469-68.121094 15.578125-157.972657zm-205.917969-140.519531v-40.984375h163.078125v40.984375zm-81.710937-40.984375h66.507812v40.984375h-66.507812zm-205.953125 182.5625c3.632812-51.992187 13.453125-101.660156 24.808593-126.375h10.390626c-20.058594 58.632813-31.710938 199.074219-11.972657 277.621094-4.417969-1.292969-7.800781-2.429688-9.992187-3.207031-12.703125-32.96875-17.527344-86.609376-13.234375-148.039063zm465.179687 148.039063c-2.191406.777343-5.558594 1.90625-9.960937 3.199218 3.703125-14.644531 6.433593-31.796875 8.132812-51.207031.367188-4.179687-2.726562-7.867187-6.910156-8.234375-4.175781-.363281-7.871094 2.726562-8.234375 6.910156-1.960938 22.382813-5.308594 41.476563-9.960938 56.859375-7.34375 1.617188-15.847656 3.179688-25.296874 4.382813-30.023438 3.832031-75.910157 4.769531-125.402344-12.09375l-41.464844-87.71875c-1.257812-2.660156-3.933594-4.351563-6.875-4.351563s-5.617188 1.691407-6.871094 4.351563l-41.464844 87.71875c-49.492187 16.863281-95.382812 15.925781-125.402343 12.09375-9.449219-1.203125-17.949219-2.765625-25.292969-4.382813-22.566406-74.878906-9.652344-228.484375 11.191406-281.941406h375.679688c13.242187 34.359375 25.253906 117.84375 22.886718 195.277344-.128906 4.195312 3.167969 7.703125 7.367188 7.832031h.234375c4.09375 0 7.46875-3.25 7.597656-7.367188 2.140625-70.085937-7.460937-153.53125-21.910156-195.742187h10.382813c11.355468 24.714844 21.175781 74.378906 24.808593 126.375 4.292969 61.429687-.53125 115.070313-13.234375 148.039063zm0 0" data-original="#000000" class="active-path" data-old_color="#9C0000" fill="#9E0000"/></g> </svg>
