<?xml version="1.0"?>
<svg xmlns="http://www.w3.org/2000/svg" height="512px" viewBox="-30 0 511 511.99999" width="512px" class=""><g><link xmlns="" type="text/css" id="dark-mode" rel="stylesheet" href="" class="active-path" style="fill:#00A0FF" data-old_color="#000000"/><style xmlns="" type="text/css" id="dark-mode-custom-style" class="active-path" style="fill:#00A0FF" data-old_color="#000000"/><path d="m93.015625 510.984375c45.972656 7.480469 87.484375-27.597656 87.484375-73.984375v-26.183594c0-37.980468 6.21875-79.792968 19.015625-127.832031 7.289063-27.363281 10.984375-56.964844 10.984375-87.984375 0-75.828125-29.175781-195-105-195-72.195312 0-102.835938 109.609375-104.859375 184.738281 0 .039063-.003906.078125-.003906.117188-.085938 3.371093-.136719 6.75-.136719 10.144531 0 31.019531 3.695312 60.621094 10.984375 87.984375 12.796875 48.039063 19.015625 89.851563 19.015625 127.832031v22.972656c0 38.210938 26.875 71.398438 62.515625 77.195313zm-48.925781-408.898437 34.367187 22.914062-45.695312 30.464844c2.214843-19.039063 6.039062-37.054688 11.328125-53.378906zm-13.589844 92.914062c0-.660156.007812-1.320312.011719-1.980469 13.714843-9.140625 122.671875-81.78125 136.398437-90.933593 6.410156 19.78125 10.664063 42.042968 12.519532 65.601562-18.089844 12.058594-141.207032 94.136719-142.035157 94.6875-4.519531-21.144531-6.894531-44.167969-6.894531-67.375zm143.105469 67.375-41.0625-27.375 47.851562-31.902344c-.484375 20.449219-2.796875 40.59375-6.789062 59.277344zm-23.105469 148.441406v26.183594c0 26.878906-23.855469 49.058594-52.667969 44.375-21.28125-3.464844-37.332031-23.921875-37.332031-47.585938v-22.972656c0-35.714844-5.066406-74.304687-15.449219-117.488281l60.449219-40.300781 60.449219 40.300781c-10.378907 43.183594-15.449219 81.773437-15.449219 117.488281zm-45-380.816406c17.652344 0 35.796875 15.929688 49.863281 43.726562l-49.863281 33.246094-49.867188-33.242187c14.070313-27.800781 32.214844-43.730469 49.867188-43.730469zm0 0" data-original="#000000" class="active-path" data-old_color="#000000" fill="#00A0FF"/><path d="m333.015625 510.984375c46.464844 7.5625 87.484375-28.089844 87.484375-73.984375v-26.183594c0-37.980468 6.21875-79.792968 19.015625-127.832031 7.289063-27.363281 10.984375-56.964844 10.984375-87.984375 0-75.828125-29.175781-195-105-195-71.296875 0-102.808594 108.660156-104.859375 184.738281 0 .039063 0 .078125-.003906.117188-.085938 3.371093-.136719 6.75-.136719 10.144531 0 31.019531 3.695312 60.621094 10.984375 87.984375 12.796875 48.039063 19.015625 89.851563 19.015625 127.832031v22.972656c0 38.210938 26.875 71.398438 62.515625 77.195313zm-48.925781-408.898437 34.367187 22.914062-45.695312 30.464844c2.214843-19.039063 6.039062-37.054688 11.328125-53.378906zm-13.589844 92.914062c0-.660156.007812-1.320312.011719-1.980469 13.714843-9.140625 122.671875-81.78125 136.398437-90.933593 6.410156 19.78125 10.664063 42.042968 12.519532 65.601562l-142.035157 94.6875c-4.519531-21.144531-6.894531-44.167969-6.894531-67.375zm143.105469 67.375-41.0625-27.375 47.851562-31.902344c-.484375 20.449219-2.796875 40.59375-6.789062 59.277344zm-23.105469 148.441406v26.183594c0 26.878906-23.855469 49.058594-52.667969 44.375-21.28125-3.464844-37.332031-23.921875-37.332031-47.585938v-22.972656c0-35.714844-5.066406-74.304687-15.449219-117.488281l60.449219-40.300781 60.449219 40.300781c-10.378907 43.183594-15.449219 81.773437-15.449219 117.488281zm-45-380.816406c17.652344 0 35.796875 15.929688 49.863281 43.726562l-49.863281 33.246094-49.863281-33.242187c14.066406-27.800781 32.210937-43.730469 49.863281-43.730469zm0 0" data-original="#000000" class="active-path" data-old_color="#000000" fill="#00A0FF"/></g> </svg>
