<?xml version="1.0"?>
<svg xmlns="http://www.w3.org/2000/svg" height="512px" viewBox="0 0 512 512.00139" width="512px" class=""><g><link xmlns="" type="text/css" id="dark-mode" rel="stylesheet" href="" class="active-path" style="fill:#FF2800" data-old_color="#FF0059"/><style xmlns="" type="text/css" id="dark-mode-custom-style" class="active-path" style="fill:#FF2800" data-old_color="#FF0059"/><path d="m384.398438.0078125c-57.960938.7539065-107.980469 46.3085935-116.691407 96.8476565-8.183593 43.707031 11.691407 62.457031 24.929688 135.058593 8.648437 47.316407 11.847656 99.597657 9.003906 147.203126-4.5 75.441406 10.339844 132.882812 86.890625 132.882812 43.5625 0 71.136719-22.390625 86.777344-70.472656 13.917968-42.785156 18.734375-105.25 24.835937-184.328125 3.253907-42.199219 6.320313-81.246094 10.761719-124.890625 8.347656-81.96875-60.191406-133.105469-126.507812-132.3007815zm95.804687 255.6523435c-5.996094 77.753906-10.734375 139.164063-23.914063 179.683594-13.09375 40.242188-32.726562 56.65625-67.757812 56.65625-63.226562 0-70.746094-47.667969-66.929688-111.691406 2.867188-48.039063-.230468-100.664063-8.703124-148.617188.019531-.132812.050781-.265625.070312-.402344 6.847656-52.976562 67.25-97.121093 85.511719-109.347656 17.835937 12.15625 75.984375 55.460938 83.730469 107.859375-.691407 8.816407-1.359376 17.441407-2.007813 25.859375zm10.808594-125.375c-1.882813 18.492188-3.523438 36.238282-4.96875 52.898438-23.238281-40.136719-63.589844-69.324219-77.515625-78.621094v-34.554688c0-5.523437-4.476563-10-10-10-5.519532 0-9.996094 4.476563-9.996094 10v34.5c-15.246094 9.980469-61.699219 43.003907-83.996094 87.945313-10.671875-42.238281-23.09375-60.429687-17.15625-91.988281 8.691406-44.914063 51.285156-79.855469 97.273438-80.457032.429687-.003906.851562-.007812 1.28125-.007812 53.371094 0 112.203125 40.292969 105.078125 110.285156zm0 0" data-original="#000000" class="active-path" data-old_color="#FF0059" fill="#FF2800"/><path d="m36.535156 322.003906c0 5.523438-4.476562 10-10 10-5.523437 0-10-4.476562-10-10 0-5.523437 4.476563-10 10-10 5.523438 0 10 4.476563 10 10zm0 0" data-original="#000000" class="active-path" data-old_color="#FF0059" fill="#FF2800"/><path d="m125.523438.0078125c-68.035157.0859375-132.9375 52.7656255-124.835938 132.3046875 5.585938 54.710938 8.914062 101.894531 12.757812 150.597656.433594 5.507813 5.253907 9.621094 10.753907 9.183594 5.503906-.433594 9.617187-5.246094 9.183593-10.753906-1.238281-15.699219-2.6875-34.804688-4.007812-51.570313 7.757812-52.269531 65.519531-95.636719 83.253906-107.828125 18.359375 12.191406 79.136719 56.257813 85.996094 109.347656.019531.136719.050781.269532.074219.402344-8.476563 47.957032-11.574219 100.582032-8.707031 148.617188 3.792968 63.644531-3.511719 111.691406-66.925782 111.691406-49.730468 0-70.492187-33.160156-82.285156-131.417969-.65625-5.484375-5.640625-9.40625-11.121094-8.738281-5.480468.65625-9.394531 5.636719-8.734375 11.121094 9.203125 76.683594 24.878907 149.035156 102.140625 149.035156 76.777344 0 91.367188-57.816406 86.890625-132.882812-2.84375-47.605469.355469-99.886719 9.003907-147.207032 13.285156-72.859375 33.207031-91.050781 24.894531-135.234375-9.539063-52.207031-60.625-96.8125-118.332031-96.6679685zm81.523437 192.5039065c-22.398437-44.992188-69.175781-78.042969-84.511719-88.023438v-34.480469c0-5.523437-4.476562-10-10-10-5.523437 0-10 4.476563-10 10v34.574219c-13.832031 9.289063-53.863281 38.421875-76.992187 78.484375-1.445313-16.675781-3.082031-34.394531-4.957031-52.785156-7.042969-69.105469 50.789062-110.207031 104.960937-110.273438 45.15625-.078124 89.164063 33.371094 98.667969 80.460938 5.9375 31.550781-6.507813 49.8125-17.167969 92.042969zm0 0" data-original="#000000" class="active-path" data-old_color="#FF0059" fill="#FF2800"/></g> </svg>
